# xmcd
# 
# Track frame offsets:
#     150
#     17020
#     31426
#     46800
#     63382
#     79611
#     96455
#     112657
#     128691
#     144804
#     160664
#     177891
#     194510
#     210734
#     223940
#     238218
#     252540
#     268855
#     284843
#     297983
#     316768
#     332378
# 
# Disc length: 4712
# 
# Revision: 4
# Processed by: cddbd v1.5.2PL0 Copyright (c) Steve Scherf et al.
# Submitted via: fre:ac v1.0.31
# 
DISCID=47126616
DTITLE=Various Artist - Bääärenstark!!! Hits 2017 - die erste - CD 2
DYEAR=2016
DGENRE=Schlager
TTITLE0=DJ Ötzi and Nik P. - Geboren um dich zu lieben
TTITLE1=Jürgen Drews - Das ist der Moment
TTITLE2=Vanessa Mai - Mein Herz schlägt Schlager (Stereoact Remix)
TTITLE3=Wolfgang Petry - Musik ist mein Leben
TTITLE4=Michelle - Herzstillstand
TTITLE5=Stefan Zauner and Petra Manuela - Mensch ärgere Dich nicht
TTITLE6=Hertel and Hoffmann - Männerversteher
TTITLE7=Julia Lindholm - Mamma Mia
TTITLE8=dArtagnan - Komm mit (Unheilig Remix)
TTITLE9=Franziska - Abenteuer
TTITLE10=Ronny Krappmann - Ich seh dich noch vor mir
TTITLE11=Nic - Ich geb nicht auf
TTITLE12=Tanja Lasch - Er hat mich geliebt (Roger Hübner Fox Edit)
TTITLE13=Fantasy - Blinder Passagier
TTITLE14=Olaf - Du gibst mir dieses Herzgefühl
TTITLE15=Hansi Hinterseer - Weil ich dich so mag
TTITLE16=Die Amigos - Lass uns leben
TTITLE17=Sarah Jane Scott - Ich schau dir in die Augen
TTITLE18=Gerd Christian - Mein Hafen
TTITLE19=Heinz Rudolf Kunze - Blumen aus Eis
TTITLE20=Die Affäre feat.Wolfgang Petry - Verlieben, verloren, vergessen, verzeihen
TTITLE21=Schramme11 - Machs gut
EXTD=
EXTT0=
EXTT1=
EXTT2=
EXTT3=
EXTT4=
EXTT5=
EXTT6=
EXTT7=
EXTT8=
EXTT9=
EXTT10=
EXTT11=
EXTT12=
EXTT13=
EXTT14=
EXTT15=
EXTT16=
EXTT17=
EXTT18=
EXTT19=
EXTT20=
EXTT21=
PLAYORDER=
